<mxfile host="65bd71144e">
    <diagram id="E8xWxgKXrEqJqCk5Lz5x" name="Page-1">
        <mxGraphModel dx="2218" dy="859" grid="1" gridSize="10" guides="1" tooltips="1" connect="1" arrows="1" fold="1" page="1" pageScale="1" pageWidth="850" pageHeight="1100" math="0" shadow="0">
            <root>
                <mxCell id="0"/>
                <mxCell id="1" parent="0"/>
                <mxCell id="3" value="" style="rounded=0;whiteSpace=wrap;html=1;rotation=90;" vertex="1" parent="1">
                    <mxGeometry x="159.38" y="-49.37" width="630" height="732.5" as="geometry"/>
                </mxCell>
                <mxCell id="4" value="Administrador" style="shape=umlActor;verticalLabelPosition=bottom;verticalAlign=top;html=1;outlineConnect=0;" vertex="1" parent="1">
                    <mxGeometry x="30" y="221.87" width="30" height="60" as="geometry"/>
                </mxCell>
                <mxCell id="7" value="Coordinador" style="shape=umlActor;verticalLabelPosition=bottom;verticalAlign=top;html=1;outlineConnect=0;" vertex="1" parent="1">
                    <mxGeometry x="30" y="91.87" width="30" height="60" as="geometry"/>
                </mxCell>
                <mxCell id="8" value="Observar datos estadísticos del trabajo realizado" style="ellipse;whiteSpace=wrap;html=1;" vertex="1" parent="1">
                    <mxGeometry x="240" y="31.869999999999997" width="300" height="80" as="geometry"/>
                </mxCell>
                <mxCell id="10" value="Sanitario" style="shape=umlActor;verticalLabelPosition=bottom;verticalAlign=top;html=1;outlineConnect=0;" vertex="1" parent="1">
                    <mxGeometry x="30" y="351.87" width="30" height="60" as="geometry"/>
                </mxCell>
                <mxCell id="11" value="Crear equipos de trabajo" style="ellipse;whiteSpace=wrap;html=1;" vertex="1" parent="1">
                    <mxGeometry x="240" y="131.87" width="300" height="80" as="geometry"/>
                </mxCell>
                <mxCell id="12" value="Dar de alta y baja a usuarios" style="ellipse;whiteSpace=wrap;html=1;" vertex="1" parent="1">
                    <mxGeometry x="240" y="231.87" width="300" height="80" as="geometry"/>
                </mxCell>
                <mxCell id="13" value="Redactar informes sanitarios" style="ellipse;whiteSpace=wrap;html=1;" vertex="1" parent="1">
                    <mxGeometry x="240" y="431.87" width="300" height="80" as="geometry"/>
                </mxCell>
                <mxCell id="14" value="Redactar la valoración del vehículo" style="ellipse;whiteSpace=wrap;html=1;" vertex="1" parent="1">
                    <mxGeometry x="240" y="531.87" width="300" height="80" as="geometry"/>
                </mxCell>
                <mxCell id="23" value="" style="endArrow=none;html=1;entryX=0.5;entryY=0.5;entryDx=0;entryDy=0;entryPerimeter=0;exitX=0;exitY=0.5;exitDx=0;exitDy=0;" edge="1" parent="1" source="8" target="7">
                    <mxGeometry width="50" height="50" relative="1" as="geometry">
                        <mxPoint x="70" y="531.87" as="sourcePoint"/>
                        <mxPoint x="120" y="481.87" as="targetPoint"/>
                    </mxGeometry>
                </mxCell>
                <mxCell id="24" value="" style="endArrow=none;html=1;entryX=0.5;entryY=0.5;entryDx=0;entryDy=0;entryPerimeter=0;exitX=0;exitY=0.5;exitDx=0;exitDy=0;" edge="1" parent="1" source="11" target="7">
                    <mxGeometry width="50" height="50" relative="1" as="geometry">
                        <mxPoint x="250" y="81.87" as="sourcePoint"/>
                        <mxPoint x="45" y="81.87" as="targetPoint"/>
                    </mxGeometry>
                </mxCell>
                <mxCell id="25" value="" style="endArrow=none;html=1;entryX=0.5;entryY=0.5;entryDx=0;entryDy=0;entryPerimeter=0;exitX=0;exitY=0.5;exitDx=0;exitDy=0;" edge="1" parent="1" source="12" target="4">
                    <mxGeometry width="50" height="50" relative="1" as="geometry">
                        <mxPoint x="260" y="91.87" as="sourcePoint"/>
                        <mxPoint x="55" y="91.87" as="targetPoint"/>
                    </mxGeometry>
                </mxCell>
                <mxCell id="26" value="" style="endArrow=none;html=1;entryX=0.5;entryY=0.5;entryDx=0;entryDy=0;entryPerimeter=0;exitX=0;exitY=0.5;exitDx=0;exitDy=0;" edge="1" parent="1" source="13" target="10">
                    <mxGeometry width="50" height="50" relative="1" as="geometry">
                        <mxPoint x="275" y="291.87" as="sourcePoint"/>
                        <mxPoint x="70" y="291.87" as="targetPoint"/>
                    </mxGeometry>
                </mxCell>
                <mxCell id="27" value="" style="endArrow=none;html=1;entryX=0.5;entryY=0.5;entryDx=0;entryDy=0;entryPerimeter=0;exitX=0;exitY=0.5;exitDx=0;exitDy=0;" edge="1" parent="1" source="14" target="10">
                    <mxGeometry width="50" height="50" relative="1" as="geometry">
                        <mxPoint x="280" y="111.87" as="sourcePoint"/>
                        <mxPoint x="75" y="111.87" as="targetPoint"/>
                    </mxGeometry>
                </mxCell>
                <mxCell id="28" value="" style="endArrow=none;html=1;entryX=0.5;entryY=0.5;entryDx=0;entryDy=0;entryPerimeter=0;exitX=0;exitY=0.5;exitDx=0;exitDy=0;" edge="1" parent="1" source="12" target="10">
                    <mxGeometry width="50" height="50" relative="1" as="geometry">
                        <mxPoint x="250" y="351.87" as="sourcePoint"/>
                        <mxPoint x="45" y="391.87" as="targetPoint"/>
                    </mxGeometry>
                </mxCell>
                <mxCell id="29" value="" style="endArrow=none;html=1;entryX=0.5;entryY=0.5;entryDx=0;entryDy=0;entryPerimeter=0;exitX=0;exitY=0.5;exitDx=0;exitDy=0;" edge="1" parent="1" source="12" target="7">
                    <mxGeometry width="50" height="50" relative="1" as="geometry">
                        <mxPoint x="260" y="361.87" as="sourcePoint"/>
                        <mxPoint x="55" y="401.87" as="targetPoint"/>
                    </mxGeometry>
                </mxCell>
                <mxCell id="35" value="Login" style="ellipse;whiteSpace=wrap;html=1;" vertex="1" parent="1">
                    <mxGeometry x="240" y="331.87" width="300" height="80" as="geometry"/>
                </mxCell>
                <mxCell id="37" value="" style="endArrow=none;html=1;entryX=0.5;entryY=0.5;entryDx=0;entryDy=0;entryPerimeter=0;exitX=0;exitY=0.5;exitDx=0;exitDy=0;" edge="1" parent="1" source="35" target="10">
                    <mxGeometry width="50" height="50" relative="1" as="geometry">
                        <mxPoint x="250" y="281.87" as="sourcePoint"/>
                        <mxPoint x="45" y="391.87" as="targetPoint"/>
                    </mxGeometry>
                </mxCell>
                <mxCell id="38" value="" style="endArrow=none;html=1;entryX=0.5;entryY=0.5;entryDx=0;entryDy=0;entryPerimeter=0;exitX=0;exitY=0.5;exitDx=0;exitDy=0;" edge="1" parent="1" source="35" target="4">
                    <mxGeometry width="50" height="50" relative="1" as="geometry">
                        <mxPoint x="260" y="291.87" as="sourcePoint"/>
                        <mxPoint x="55" y="401.87" as="targetPoint"/>
                    </mxGeometry>
                </mxCell>
                <mxCell id="39" value="" style="endArrow=none;html=1;entryX=0.5;entryY=0.5;entryDx=0;entryDy=0;entryPerimeter=0;exitX=0;exitY=0.5;exitDx=0;exitDy=0;" edge="1" parent="1" source="35" target="7">
                    <mxGeometry width="50" height="50" relative="1" as="geometry">
                        <mxPoint x="270" y="301.87" as="sourcePoint"/>
                        <mxPoint x="65" y="411.87" as="targetPoint"/>
                    </mxGeometry>
                </mxCell>
                <mxCell id="41" value="Verificar usuario" style="ellipse;whiteSpace=wrap;html=1;" vertex="1" parent="1">
                    <mxGeometry x="538.75" y="271.87" width="300" height="80" as="geometry"/>
                </mxCell>
                <mxCell id="42" value="Include" style="endArrow=open;endSize=12;dashed=1;html=1;entryX=0;entryY=0.5;entryDx=0;entryDy=0;" edge="1" parent="1" source="35" target="41">
                    <mxGeometry width="160" relative="1" as="geometry">
                        <mxPoint x="320" y="431.87" as="sourcePoint"/>
                        <mxPoint x="480" y="431.87" as="targetPoint"/>
                    </mxGeometry>
                </mxCell>
            </root>
        </mxGraphModel>
    </diagram>
</mxfile>